<svg version="1.1" viewBox="0.0 0.0 565.0419947506562 342.62467191601047" fill="none" stroke="none" stroke-linecap="square" stroke-miterlimit="10" xmlns:xlink="http://www.w3.org/1999/xlink" xmlns="http://www.w3.org/2000/svg"><clipPath id="p.0"><path d="m0 0l565.042 0l0 342.62466l-565.042 0l0 -342.62466z" clip-rule="nonzero"/></clipPath><g clip-path="url(#p.0)"><path fill="#000000" fill-opacity="0.0" d="m0 0l565.042 0l0 342.62466l-565.042 0z" fill-rule="evenodd"/><path fill="#000000" fill-opacity="0.0" d="m53.23622 75.7769l439.62207 0l0 213.32283l-439.62207 0z" fill-rule="evenodd"/><path fill="#666666" d="m88.4706 129.42377l-17.4375 -1.921875l0 -8.0l42.40625 0l22.5625 72.0l5.28125 20.3125l4.796875 -20.3125l22.390625 -72.0l42.078125 0l0 8.0l-17.59375 1.921875l12.796875 99.359375l13.921875 1.75l0 7.84375l-46.078125 0l0 -7.84375l14.5625 -1.59375l-7.203125 -71.84375l-3.359375 -30.875l-6.71875 23.03125l-26.71875 83.6875l-10.40625 0l-25.921875 -76.640625l-9.4375 -30.234375l-2.875 31.03125l-6.40625 71.84375l15.84375 1.59375l0 7.84375l-41.765625 0l0 -7.84375l13.609375 -1.59375l11.671875 -99.515625zm152.80634 0l-13.765625 -1.921875l0 -8.0l85.60936 0l1.59375 27.1875l-10.390625 0l-4.8125 -17.75l-41.109375 -1.125l0 46.40625l28.953125 -0.484375l2.71875 -13.28125l8.484375 0l0 37.4375l-8.328125 0l-2.875 -13.921875l-28.953125 -0.640625l0 45.609375l24.953125 1.59375l0 7.84375l-54.874985 0l0 -7.84375l12.796875 -1.59375l0 -99.515625zm104.63377 0l-17.4375 -1.921875l0 -8.0l42.40625 0l22.5625 72.0l5.28125 20.3125l4.796875 -20.3125l22.390625 -72.0l42.078125 0l0 8.0l-17.59375 1.921875l12.796875 99.359375l13.921875 1.75l0 7.84375l-46.078125 0l0 -7.84375l14.5625 -1.59375l-7.203125 -71.84375l-3.359375 -30.875l-6.71875 23.03125l-26.71875 83.6875l-10.40625 0l-25.921875 -76.640625l-9.4375 -30.234375l-2.875 31.03125l-6.40625 71.84375l15.84375 1.59375l0 7.84375l-41.765625 0l0 -7.84375l13.609375 -1.59375l11.671875 -99.515625z" fill-rule="nonzero"/></g></svg>